<?xml version="1.0" encoding="UTF-8"?>
<svg xmlns="http://www.w3.org/2000/svg" viewBox="0 0 100 100">
  <defs>
    <style>
      .cls-1 {
        fill: #91d4f5;
      }

      .cls-1, .cls-2, .cls-3 {
        stroke-width: 0px;
      }

      .cls-4 {
        mix-blend-mode: multiply;
      }

      .cls-2 {
        fill: #c190c0;
      }

      .cls-5 {
        isolation: isolate;
      }

      .cls-3 {
        fill: #662482;
      }
    </style>
  </defs>
  <g class="cls-5">
    <g id="Layer_1" data-name="Layer 1">
      <g>
        <g>
          <path class="cls-2" d="M29.15,3.74h41.7c3.07,0,5.56,2.49,5.56,5.56v81.39c0,3.07-2.49,5.56-5.56,5.56H29.15c-3.07,0-5.56-2.49-5.56-5.56V9.3c0-3.07,2.49-5.56,5.56-5.56Z"/>
          <path class="cls-3" d="M70.85,97.42H29.15c-3.71,0-6.72-3.01-6.72-6.72V9.31c0-3.71,3.01-6.72,6.72-6.72h41.7c3.71,0,6.72,3.02,6.72,6.72v81.39c0,3.71-3.02,6.72-6.72,6.72ZM29.15,4.9c-2.43,0-4.4,1.98-4.4,4.41v81.39c0,2.43,1.98,4.4,4.4,4.4h41.7c2.43,0,4.41-1.98,4.41-4.4V9.31c0-2.43-1.98-4.41-4.41-4.41H29.15Z"/>
        </g>
        <g class="cls-4">
          <path class="cls-2" d="M70.85,3.74h-9.22c7.48,8.6,11.68,19.74,11.68,31.2,0,12.55-5.04,24.73-13.92,33.6-8.87,8.87-21.05,13.92-33.6,13.92-.74,0-1.47-.02-2.21-.06v8.3c0,3.07,2.49,5.56,5.56,5.56h41.7c3.07,0,5.56-2.49,5.56-5.56V9.31c0-3.07-2.49-5.56-5.56-5.56Z"/>
        </g>
        <g>
          <rect class="cls-1" x="28.95" y="13.36" width="42.1" height="70.01"/>
          <path class="cls-3" d="M71.05,84.56H28.95c-.66,0-1.19-.53-1.19-1.19V13.36c0-.66.53-1.19,1.19-1.19h42.1c.66,0,1.19.53,1.19,1.19v70.01c0,.66-.53,1.19-1.19,1.19ZM30.14,82.19h39.73V14.55H30.14v67.64Z"/>
        </g>
        <g class="cls-4">
          <path class="cls-1" d="M71.05,49.36c-2.29,7.17-6.27,13.79-11.66,19.17-8.12,8.13-19.02,13.04-30.44,13.81v1.03h42.1v-34.01Z"/>
          <path class="cls-1" d="M71.05,20.51v-7.15h-2.94c1.17,2.3,2.16,4.69,2.94,7.15Z"/>
        </g>
        <path class="cls-3" d="M58.32,9.75h-16.65c-.64,0-1.16-.52-1.16-1.16s.52-1.16,1.16-1.16h16.65c.64,0,1.16.52,1.16,1.16s-.52,1.16-1.16,1.16Z"/>
        <g>
          <path class="cls-1" d="M58.41,90.14c0,1.12-.91,2.04-2.04,2.04h-12.75c-1.12,0-2.04-.91-2.04-2.04h0c0-1.12.91-2.04,2.04-2.04h12.75c1.13,0,2.04.91,2.04,2.04h0Z"/>
          <path class="cls-3" d="M56.37,93.34h-12.75c-1.76,0-3.19-1.43-3.19-3.2s1.43-3.2,3.19-3.2h12.75c1.76,0,3.2,1.43,3.2,3.2s-1.43,3.2-3.2,3.2ZM43.62,89.26c-.48,0-.88.39-.88.88s.39.88.88.88h12.75c.49,0,.88-.39.88-.88s-.39-.88-.88-.88h-12.75Z"/>
        </g>
      </g>
    </g>
  </g>
</svg>