<?xml version="1.0" encoding="UTF-8"?>
<svg xmlns="http://www.w3.org/2000/svg" viewBox="0 0 100 100">
  <defs>
    <style>
      .cls-1 {
        fill: #91d4f5;
      }

      .cls-1, .cls-2, .cls-3 {
        stroke-width: 0px;
      }

      .cls-4 {
        mix-blend-mode: multiply;
      }

      .cls-2 {
        fill: #ed79ac;
      }

      .cls-5 {
        isolation: isolate;
      }

      .cls-3 {
        fill: #662482;
      }
    </style>
  </defs>
  <g class="cls-5">
    <g id="Layer_1" data-name="Layer 1">
      <g>
        <g>
          <g>
            <rect class="cls-1" x="28.5" y="15.05" width="62.25" height="83.5"/>
            <path class="cls-3" d="M90.75,99.7H28.5c-.63,0-1.15-.51-1.15-1.15V15.05c0-.63.51-1.15,1.15-1.15h62.25c.63,0,1.15.51,1.15,1.15v83.5c0,.63-.51,1.15-1.15,1.15ZM29.65,97.4h59.96V16.2H29.65v81.2Z"/>
          </g>
          <g class="cls-4">
            <path class="cls-1" d="M73.33,15.05c7.7,8.17,12.06,19.1,12.06,30.35s-4.7,23.02-12.96,31.28c-8.26,8.26-19.59,12.95-31.28,12.95-4.31,0-8.58-.64-12.66-1.86v10.78h62.25V15.05h-17.42Z"/>
          </g>
          <g>
            <path class="cls-3" d="M76,25.82h-32.75c-.64,0-1.16-.52-1.16-1.16s.52-1.16,1.16-1.16h32.75c.64,0,1.16.52,1.16,1.16s-.52,1.16-1.16,1.16Z"/>
            <g>
              <g>
                <g>
                  <rect class="cls-2" x="35.51" y="34.07" width="23.41" height="32.93"/>
                  <path class="cls-3" d="M58.93,68.23h-23.41c-.68,0-1.24-.55-1.24-1.24v-32.93c0-.68.55-1.24,1.24-1.24h23.41c.68,0,1.24.55,1.24,1.24v32.93c0,.68-.55,1.24-1.24,1.24ZM36.75,65.76h20.94v-30.46h-20.94v30.46Z"/>
                </g>
                <path class="cls-3" d="M58.93,68.23c-.39,0-.77-.18-1.01-.52l-23.41-32.93c-.4-.56-.27-1.33.29-1.72.56-.4,1.33-.27,1.72.29l23.41,32.93c.4.56.27,1.33-.29,1.72-.22.15-.47.23-.71.23Z"/>
                <path class="cls-3" d="M35.51,68.23c-.25,0-.5-.07-.71-.23-.56-.4-.69-1.17-.29-1.72l23.41-32.93c.4-.56,1.17-.69,1.72-.29.56.4.69,1.17.29,1.72l-23.41,32.93c-.24.34-.62.52-1.01.52Z"/>
              </g>
              <g>
                <g>
                  <path class="cls-3" d="M84.25,35.23h-19.46c-.64,0-1.16-.52-1.16-1.16s.52-1.16,1.16-1.16h19.46c.64,0,1.16.52,1.16,1.16s-.52,1.16-1.16,1.16Z"/>
                  <path class="cls-3" d="M84.25,40.72h-19.46c-.64,0-1.16-.52-1.16-1.16s.52-1.16,1.16-1.16h19.46c.64,0,1.16.52,1.16,1.16s-.52,1.16-1.16,1.16Z"/>
                  <path class="cls-3" d="M84.25,46.2h-19.46c-.64,0-1.16-.52-1.16-1.16s.52-1.16,1.16-1.16h19.46c.64,0,1.16.52,1.16,1.16s-.52,1.16-1.16,1.16Z"/>
                  <path class="cls-3" d="M84.25,51.69h-19.46c-.64,0-1.16-.52-1.16-1.16s.52-1.16,1.16-1.16h19.46c.64,0,1.16.52,1.16,1.16s-.52,1.16-1.16,1.16Z"/>
                  <path class="cls-3" d="M84.25,57.18h-19.46c-.64,0-1.16-.52-1.16-1.16s.52-1.16,1.16-1.16h19.46c.64,0,1.16.52,1.16,1.16s-.52,1.16-1.16,1.16Z"/>
                </g>
                <path class="cls-3" d="M84.25,62.66h-19.46c-.64,0-1.16-.52-1.16-1.16s.52-1.16,1.16-1.16h19.46c.64,0,1.16.52,1.16,1.16s-.52,1.16-1.16,1.16Z"/>
                <path class="cls-3" d="M84.25,68.15h-19.46c-.64,0-1.16-.52-1.16-1.16s.52-1.16,1.16-1.16h19.46c.64,0,1.16.52,1.16,1.16s-.52,1.16-1.16,1.16Z"/>
                <path class="cls-3" d="M84.25,73.64h-49.26c-.64,0-1.16-.52-1.16-1.16s.52-1.16,1.16-1.16h49.26c.64,0,1.16.52,1.16,1.16s-.52,1.16-1.16,1.16Z"/>
                <path class="cls-3" d="M84.25,79.13h-49.26c-.64,0-1.16-.52-1.16-1.16s.52-1.16,1.16-1.16h49.26c.64,0,1.16.52,1.16,1.16s-.52,1.16-1.16,1.16Z"/>
                <path class="cls-3" d="M84.25,84.62h-49.26c-.64,0-1.16-.52-1.16-1.16s.52-1.16,1.16-1.16h49.26c.64,0,1.16.52,1.16,1.16s-.52,1.16-1.16,1.16Z"/>
                <path class="cls-3" d="M84.25,90.11h-49.26c-.64,0-1.16-.52-1.16-1.16s.52-1.16,1.16-1.16h49.26c.64,0,1.16.52,1.16,1.16s-.52,1.16-1.16,1.16Z"/>
              </g>
            </g>
          </g>
        </g>
        <g>
          <g>
            <rect class="cls-1" x="9.25" y="1.45" width="62.25" height="83.5"/>
            <path class="cls-3" d="M71.5,86.09H9.25c-.63,0-1.15-.51-1.15-1.15V1.45c0-.63.51-1.15,1.15-1.15h62.25c.63,0,1.15.51,1.15,1.15v83.5c0,.63-.51,1.15-1.15,1.15ZM10.4,83.8h59.96V2.6H10.4v81.2Z"/>
          </g>
          <g class="cls-4">
            <path class="cls-1" d="M54.08,1.45c7.7,8.17,12.06,19.1,12.06,30.35s-4.7,23.02-12.96,31.28c-8.26,8.26-19.59,12.96-31.28,12.96-4.31,0-8.58-.64-12.66-1.86v10.78h62.25V1.45h-17.42Z"/>
          </g>
          <g>
            <path class="cls-3" d="M56.75,12.21H24c-.64,0-1.16-.52-1.16-1.16s.52-1.16,1.16-1.16h32.75c.64,0,1.16.52,1.16,1.16s-.52,1.16-1.16,1.16Z"/>
            <g>
              <g>
                <g>
                  <rect class="cls-2" x="16.26" y="20.46" width="23.41" height="32.93"/>
                  <path class="cls-3" d="M39.68,54.62h-23.41c-.68,0-1.24-.55-1.24-1.24V20.46c0-.68.55-1.24,1.24-1.24h23.41c.68,0,1.24.55,1.24,1.24v32.93c0,.68-.55,1.24-1.24,1.24ZM17.5,52.15h20.94v-30.46h-20.94v30.46Z"/>
                </g>
                <path class="cls-3" d="M39.68,54.62c-.39,0-.77-.18-1.01-.52L15.25,21.18c-.4-.56-.27-1.33.29-1.72.56-.4,1.33-.26,1.72.29l23.41,32.93c.4.56.27,1.33-.29,1.72-.22.15-.47.23-.71.23Z"/>
                <path class="cls-3" d="M16.26,54.62c-.25,0-.5-.07-.71-.23-.56-.4-.69-1.17-.29-1.72l23.41-32.93c.39-.56,1.17-.69,1.72-.29.56.4.69,1.17.29,1.72l-23.41,32.93c-.24.34-.62.52-1.01.52Z"/>
              </g>
              <g>
                <g>
                  <path class="cls-3" d="M65,21.62h-19.47c-.64,0-1.16-.52-1.16-1.16s.52-1.16,1.16-1.16h19.47c.64,0,1.16.52,1.16,1.16s-.52,1.16-1.16,1.16Z"/>
                  <path class="cls-3" d="M65,27.11h-19.47c-.64,0-1.16-.52-1.16-1.16s.52-1.16,1.16-1.16h19.47c.64,0,1.16.52,1.16,1.16s-.52,1.16-1.16,1.16Z"/>
                  <path class="cls-3" d="M65,32.6h-19.47c-.64,0-1.16-.52-1.16-1.16s.52-1.16,1.16-1.16h19.47c.64,0,1.16.52,1.16,1.16s-.52,1.16-1.16,1.16Z"/>
                  <path class="cls-3" d="M65,38.08h-19.47c-.64,0-1.16-.52-1.16-1.16s.52-1.16,1.16-1.16h19.47c.64,0,1.16.52,1.16,1.16s-.52,1.16-1.16,1.16Z"/>
                  <path class="cls-3" d="M65,43.57h-19.47c-.64,0-1.16-.52-1.16-1.16s.52-1.16,1.16-1.16h19.47c.64,0,1.16.52,1.16,1.16s-.52,1.16-1.16,1.16Z"/>
                </g>
                <path class="cls-3" d="M65,49.06h-19.47c-.64,0-1.16-.52-1.16-1.16s.52-1.16,1.16-1.16h19.47c.64,0,1.16.52,1.16,1.16s-.52,1.16-1.16,1.16Z"/>
                <path class="cls-3" d="M65,54.55h-19.47c-.64,0-1.16-.52-1.16-1.16s.52-1.16,1.16-1.16h19.47c.64,0,1.16.52,1.16,1.16s-.52,1.16-1.16,1.16Z"/>
                <path class="cls-3" d="M65,60.04H15.74c-.64,0-1.16-.52-1.16-1.16s.52-1.16,1.16-1.16h49.26c.64,0,1.16.52,1.16,1.16s-.52,1.16-1.16,1.16Z"/>
                <path class="cls-3" d="M65,65.52H15.74c-.64,0-1.16-.52-1.16-1.16s.52-1.16,1.16-1.16h49.26c.64,0,1.16.52,1.16,1.16s-.52,1.16-1.16,1.16Z"/>
                <path class="cls-3" d="M65,71.01H15.74c-.64,0-1.16-.52-1.16-1.16s.52-1.16,1.16-1.16h49.26c.64,0,1.16.52,1.16,1.16s-.52,1.16-1.16,1.16Z"/>
                <path class="cls-3" d="M65,76.5H15.74c-.64,0-1.16-.52-1.16-1.16s.52-1.16,1.16-1.16h49.26c.64,0,1.16.52,1.16,1.16s-.52,1.16-1.16,1.16Z"/>
              </g>
            </g>
          </g>
        </g>
      </g>
    </g>
  </g>
</svg>