<?xml version="1.0" encoding="UTF-8"?>
<svg xmlns="http://www.w3.org/2000/svg" viewBox="0 0 100 100">
  <defs>
    <style>
      .cls-1 {
        fill: #f4b2d0;
      }

      .cls-1, .cls-2, .cls-3, .cls-4 {
        stroke-width: 0px;
      }

      .cls-5 {
        mix-blend-mode: multiply;
      }

      .cls-2 {
        fill: #ed79ac;
      }

      .cls-3 {
        fill: #f094bd;
      }

      .cls-6 {
        isolation: isolate;
      }

      .cls-4 {
        fill: #662482;
      }
    </style>
  </defs>
  <g class="cls-6">
    <g id="Layer_1" data-name="Layer 1">
      <g>
        <g>
          <polygon class="cls-2" points="98.62 17.55 98.62 80.45 90.84 86.66 9.16 86.66 9.16 17.55 98.62 17.55"/>
          <path class="cls-4" d="M90.84,88.04H9.16c-.76,0-1.38-.62-1.38-1.38V17.55c0-.76.62-1.38,1.38-1.38h89.46c.76,0,1.38.62,1.38,1.38v62.9c0,.42-.19.81-.52,1.08l-7.78,6.21c-.24.19-.55.3-.86.3ZM10.54,85.29h79.82l6.89-5.5V18.92H10.54v66.36Z"/>
        </g>
        <g class="cls-5">
          <path class="cls-3" d="M81.32,17.55c2.45,5.76,3.75,12,3.75,18.35,0,12.4-4.99,24.43-13.75,33.2-8.76,8.76-20.8,13.75-33.2,13.75-10.51,0-20.76-3.58-28.97-10.01v13.83h81.68l7.78-6.21V17.55h-17.3Z"/>
        </g>
        <g>
          <polygon class="cls-2" points="1.38 13.34 1.38 23.76 1.38 26.21 1.38 86.66 90.84 86.66 90.84 23.76 46.11 23.76 46.11 13.34 1.38 13.34"/>
          <path class="cls-4" d="M90.84,88.04H1.38c-.76,0-1.38-.62-1.38-1.38V13.34c0-.76.62-1.38,1.38-1.38h44.74c.76,0,1.38.62,1.38,1.38v9.05h43.35c.76,0,1.38.62,1.38,1.38v62.9c0,.76-.62,1.38-1.38,1.38ZM2.75,85.29h86.71V25.14h-43.35c-.76,0-1.38-.62-1.38-1.38v-9.05H2.75v70.57Z"/>
        </g>
        <g class="cls-5">
          <path class="cls-1" d="M72.83,23.76c1.12,3.87,1.71,7.9,1.71,11.98,0,11.41-4.59,22.48-12.65,30.54-8.06,8.06-19.13,12.65-30.54,12.65s-21.96-4.38-29.98-12.1v19.84h89.46V23.76h-18.01Z"/>
        </g>
      </g>
    </g>
  </g>
</svg>