<?xml version="1.0" encoding="UTF-8"?>
<svg xmlns="http://www.w3.org/2000/svg" viewBox="0 0 100 100">
  <defs>
    <style>
      .cls-1 {
        fill: #91d4f5;
      }

      .cls-1, .cls-2, .cls-3, .cls-4 {
        stroke-width: 0px;
      }

      .cls-5 {
        mix-blend-mode: multiply;
      }

      .cls-2 {
        fill: #ed79ac;
      }

      .cls-3 {
        fill: #c190c0;
      }

      .cls-6 {
        isolation: isolate;
      }

      .cls-4 {
        fill: #662482;
      }
    </style>
  </defs>
  <g class="cls-6">
    <g id="Layer_1" data-name="Layer 1">
      <g>
        <g>
          <rect class="cls-3" x="1.4" y="15.65" width="97.2" height="68.7"/>
          <path class="cls-4" d="M98.6,85.48H1.4c-.63,0-1.13-.51-1.13-1.13V15.65c0-.63.51-1.13,1.13-1.13h97.2c.63,0,1.13.51,1.13,1.13v68.69c0,.63-.51,1.13-1.13,1.13ZM2.53,83.22h94.93V16.78H2.53v66.43Z"/>
        </g>
        <g>
          <rect class="cls-1" x="9.54" y="21.4" width="80.93" height="46.22"/>
          <path class="cls-4" d="M90.47,68.76H9.54c-.63,0-1.13-.51-1.13-1.13V21.4c0-.63.51-1.13,1.13-1.13h80.93c.63,0,1.13.51,1.13,1.13v46.22c0,.63-.51,1.13-1.13,1.13ZM10.67,66.49h78.66V22.54H10.67v43.96Z"/>
        </g>
        <g>
          <path class="cls-4" d="M90.47,77.06H9.54c-.63,0-1.13-.51-1.13-1.13s.51-1.13,1.13-1.13h80.93c.63,0,1.13.51,1.13,1.13s-.51,1.13-1.13,1.13Z"/>
          <g>
            <path class="cls-1" d="M35.64,75.93c0,2.19-1.77,3.95-3.96,3.95s-3.95-1.77-3.95-3.95,1.77-3.95,3.95-3.95,3.96,1.77,3.96,3.95Z"/>
            <path class="cls-4" d="M31.69,81.02c-2.8,0-5.08-2.28-5.08-5.08s2.28-5.08,5.08-5.08,5.09,2.28,5.09,5.08-2.28,5.08-5.09,5.08ZM31.69,73.11c-1.55,0-2.82,1.27-2.82,2.82s1.26,2.82,2.82,2.82,2.82-1.27,2.82-2.82-1.27-2.82-2.82-2.82Z"/>
          </g>
        </g>
        <g>
          <polygon class="cls-2" points="37.98 44.51 37.98 30.64 50 37.58 62.02 44.51 50 51.45 37.98 58.39 37.98 44.51"/>
          <path class="cls-4" d="M37.98,59.53c-.2,0-.39-.05-.57-.15-.35-.2-.57-.58-.57-.98v-27.76c0-.4.22-.78.57-.98.35-.2.78-.2,1.13,0l24.04,13.88c.35.2.57.58.57.98s-.22.78-.57.98l-24.04,13.88c-.17.1-.37.15-.57.15ZM39.11,32.6v23.84l20.64-11.92-20.64-11.92Z"/>
        </g>
        <g class="cls-5">
          <path class="cls-3" d="M87.87,15.65c.53,2.98.81,6.01.81,9.06,0,13.72-5.52,27.04-15.22,36.74-9.7,9.7-23.02,15.22-36.74,15.22s-25.76-5-35.31-13.85v21.53h97.2V15.65h-10.73Z"/>
        </g>
      </g>
    </g>
  </g>
</svg>